<svg width="200" height="50" viewBox="0 0 200 50" fill="none" xmlns="http://www.w3.org/2000/svg" style="margin-bottom: 8px;">
    <style>
      .sweep-ray {
        stroke: #F54A2A;
        stroke-width: 1.5;
        stroke-linecap: round;
        stroke-dasharray: 8 20;
        animation: laserSweep 3s infinite linear;
      }
      .sparkle-node {
        fill: #F54A2A;
        animation: sparkTwinkle 1.5s infinite alternate ease-in-out;
        transform-origin: center;
      }
      @keyframes laserSweep {
        0% { stroke-dashoffset: 0; }
        100% { stroke-dashoffset: 56; }
      }
      @keyframes sparkTwinkle {
        0% { transform: scale(0.6) rotate(0deg); opacity: 0.5; filter: drop-shadow(0 0 1px #F54A2A); }
        100% { transform: scale(1.1) rotate(45deg); opacity: 1; filter: drop-shadow(0 0 6px #F54A2A); }
      }
    </style>
    <!-- Sweeping Laser Optimizer path -->
    <path class="sweep-ray" d="M20,25 C60,10 140,40 180,25" />
    
    <!-- Clean System Spark Nodes -->
    <g transform="translate(100, 25)">
      <polygon class="sparkle-node" points="0,-8 2,-2 8,0 2,2 0,8 -2,2 -8,0 -2,-2" />
    </g>
    <g transform="translate(50, 15)">
      <polygon class="sparkle-node" points="0,-5 1.5,-1.5 5,0 1.5,1.5 0,5 -1.5,1.5 -5,0 -1.5,-1.5" style="animation-delay: -0.5s;" />
    </g>
    <g transform="translate(150, 35)">
      <polygon class="sparkle-node" points="0,-5 1.5,-1.5 5,0 1.5,1.5 0,5 -1.5,1.5 -5,0 -1.5,-1.5" style="animation-delay: -1.0s;" />
    </g>
  </svg>